<?xml version="1.0" encoding="UTF-8"?><svg id="Layer_2" xmlns="http://www.w3.org/2000/svg" viewBox="0 0 1186.39 432.66"><defs><style>.cls-1{fill:#ffdc44;}.cls-2{fill:#fa921d;}.cls-3{fill:#fcb439;}.cls-4{opacity:.64;}.cls-4,.cls-5{fill:#fff;}.cls-5{opacity:.35;}</style></defs><g id="Layer_1-2"><g><path class="cls-1" d="M431.94,216.69c0,119.28-96.69,215.97-215.97,215.97-10.68,0-21.19-.78-31.45-2.28-25.35-3.69-49.26-11.79-70.95-23.49-16.34-8.81-31.41-19.67-44.88-32.22-7.66-7.16-14.81-14.87-21.38-23.06C17.71,314.64,0,267.74,0,216.69,0,97.41,96.69,.72,215.97,.72c6.57,0,13.07,.29,19.49,.87,10.59,.94,20.96,2.66,31.05,5.08,18.21,4.36,35.53,11.03,51.62,19.69,22.18,11.93,42.04,27.63,58.72,46.23,34.26,38.23,55.09,88.73,55.09,144.1Z"/><path class="cls-5" d="M266.51,6.67L68.69,374.67c-7.66-7.16-14.81-14.87-21.38-23.06L235.46,1.59c10.59,.94,20.96,2.66,31.05,5.08Z"/><path class="cls-5" d="M376.85,72.59L184.52,430.38c-25.35-3.69-49.26-11.79-70.95-23.49L318.13,26.36c22.18,11.93,42.04,27.63,58.72,46.23Z"/><circle class="cls-3" cx="213.54" cy="214.26" r="178.12"/><path class="cls-1" d="M384.07,214.26c0,94.18-76.35,170.53-170.53,170.53-15.11,0-29.75-1.96-43.7-5.66-25.43-6.72-48.54-19.17-67.85-35.88-7.91-6.85-15.19-14.42-21.72-22.6-7.38-9.23-13.82-19.23-19.17-29.87-11.57-23.01-18.09-49.01-18.09-76.52,0-87.32,65.63-159.31,150.25-169.33,6.65-.79,13.42-1.2,20.28-1.2,5.13,0,10.21,.23,15.22,.68,10.58,.93,20.9,2.84,30.83,5.62,25.32,7.08,48.26,19.86,67.34,36.86,35.06,31.24,57.13,76.72,57.13,127.37Z"/><path class="cls-5" d="M228.76,44.41L80.27,320.65c-7.38-9.23-13.82-19.23-19.17-29.87L193.26,44.93c6.65-.79,13.42-1.2,20.28-1.2,5.13,0,10.21,.23,15.22,.68Z"/><path class="cls-5" d="M326.94,86.89L169.84,379.12c-25.43-6.72-48.54-19.17-67.85-35.88L259.6,50.03c25.32,7.08,48.26,19.86,67.34,36.86Z"/></g><g><path class="cls-3" d="M1132.62,26.27c-7.6-8.66-15.79-15.33-24.39-19.69-4.77-2.42-9.67-4.14-14.67-5.08-4.56-2.82-46.83-.8-46.83-.8l-2.48,3.45c-17.37,11.73-23.67,39.71-35.61,67.66,50.06-.62,100.06-2.22,150.17-2.9-7.55-17.04-16.39-31.49-26.19-42.65Z"/><path class="cls-2" d="M1160.36,72.5c-.51-1.21-1.03-2.4-1.55-3.58-50.12,.68-100.11,2.27-150.17,2.9-15.74,36.84-25.56,85.24-26.28,138.45,67.97-.08,136.13,1.19,204.03,4.91-.17-54.81-9.97-104.77-26.02-142.68Z"/><path class="cls-3" d="M982.35,210.27c-.03,2.1-.05,4.21-.05,6.33,0,51.05,8.37,97.95,22.35,134.92,3.1,8.19,6.48,15.9,10.1,23.06,6.36,12.55,13.48,23.41,21.21,32.22,7.01,8-3.36,21.23,4.51,25.61l20.88-.14,17.62,.3c1.76,.19,3.59,0,5.37,0,56.36,0,102.04-96.69,102.04-215.97,0-.48,0-.95,0-1.42-67.9-3.72-136.06-4.99-204.03-4.91Z"/><path class="cls-1" d="M1141.13,216.6c0,119.28-43.37,215.97-96.88,215.97-4.79,0-9.51-.78-14.1-2.28-11.37-3.69-22.1-11.79-31.83-23.49-4.46-5.36-8.7-11.47-12.7-18.26-2.58-4.37-5.06-9.03-7.43-13.96-3.44-7.16-6.64-14.87-9.6-23.06-3.72-10.34-7.01-21.46-9.83-33.23-3.29-13.73-5.93-28.35-7.84-43.65-1.03-8.24-1.85-16.67-2.43-25.28-.73-10.68-1.11-21.62-1.11-32.76,0-119.28,43.38-215.97,96.88-215.97,2.95,0,5.86,.29,8.74,.87,4.75,.94,9.41,2.66,13.93,5.08,3.57,1.91,7.07,4.26,10.48,7.02,3.65,2.96,7.2,6.4,10.63,10.3,.69,.76,1.37,1.56,2.05,2.37,5.55,6.65,10.78,14.48,15.61,23.32,3.83,7.02,7.41,14.68,10.73,22.91,5.95,14.81,11,31.46,14.94,49.51,6.26,28.57,9.77,60.66,9.77,94.59Z"/><path class="cls-5" d="M1086.73,22.83l-137.12,250.74c-1.03-8.24-1.85-16.67-2.43-25.28L1076.1,12.53l10.63,10.3Z"/><path class="cls-4" d="M1131.36,123.2l-145.75,266.53c-2.58-4.37-5.06-9.03-7.43-13.96-3.44-7.16-6.64-14.87-9.6-23.06-3.72-10.34-7.01-21.46-9.83-33.23L1105.69,50.78c3.83,7.02,7.41,14.68,10.73,22.91,5.95,14.81,11,31.46,14.94,49.51Z"/><path class="cls-3" d="M1123.06,214.17c0,74.77-20.66,138.77-49.95,165.19h-.01c-9.24,8.34-19.35,12.93-29.94,12.93-39.21,0-71.84-62.97-78.61-146.03-.74-8.92-1.17-18.08-1.27-27.41-.02-1.56-.03-3.12-.03-4.68,0-98.38,35.78-178.13,79.91-178.13,6.08,0,12,1.51,17.69,4.38,4.06,2.04,8,4.78,11.8,8.15,.17,.14,.34,.29,.5,.45l9.93,10.82c9.29,11.96,17.39,27.96,23.83,46.93,8.72,25.67,14.38,56.76,15.8,90.62h0c.23,5.53,.35,11.12,.35,16.78Z"/><path class="cls-1" d="M1123.06,214.17c0,74.77-20.66,138.77-49.95,165.19h-.01c-5.78,3.49-11.84,5.34-18.09,5.34s-12.68-1.96-18.63-5.66c-3.22-2-6.36-4.51-9.4-7.5-7.16-7.02-13.73-16.65-19.5-28.38-3.37-6.86-6.47-14.43-9.25-22.6-1.13-3.31-2.21-6.72-3.23-10.23-1.83-6.26-3.48-12.82-4.94-19.64-3.27-15.27-5.59-31.84-6.79-49.3-.6-8.86-.92-17.96-.92-27.22,0-.28,0-.56,.01-.84h0c.17-86.95,28.07-158.5,64-168.49,2.84-.79,5.72-1.2,8.65-1.2,2.18,0,4.34,.23,6.48,.68,3.87,.8,7.64,2.31,11.31,4.49,.12,.07,.23,.14,.35,.21l9.93,10.82c9.29,11.96,17.39,27.96,23.83,46.93,8.72,25.67,14.38,56.76,15.8,90.62h0c.23,5.53,.35,11.12,.35,16.78Z"/><path class="cls-5" d="M1073.15,49.02c-.12-.07-.23-.14-.35-.21l-90.44,164.51h0c0,.29,0,.57,0,.85,0,9.26,.32,18.36,.92,27.22l99.81-181.55-9.93-10.82Z"/><path class="cls-5" d="M1122.71,197.39h0s-95.73,174.15-95.73,174.15c-7.16-7.02-13.73-16.65-19.5-28.38-3.37-6.86-6.47-14.43-9.25-22.6-1.13-3.31-2.21-6.72-3.23-10.23l111.91-203.56c8.72,25.67,14.38,56.76,15.8,90.62Z"/></g><g><path class="cls-3" d="M786.54,26.36c-12.75-8.66-26.47-15.33-40.9-19.69-7.99-2.42-16.21-4.14-24.6-5.08-7.65-2.82-68.7,.24-68.7,.24l1.2,9.08c-29.13,11.73-54.87,33.04-74.9,60.99,83.94-.62,167.77-2.22,251.8-2.9-12.66-17.04-27.48-31.49-43.91-42.65Z"/><path class="cls-2" d="M833.06,72.59c-.86-1.21-1.73-2.4-2.61-3.58-84.03,.68-167.86,2.27-251.8,2.9-26.39,36.84-42.85,85.24-44.07,138.45,113.97-.08,228.25,1.19,342.11,4.91-.28-54.81-16.72-104.77-43.63-142.68Z"/><path class="cls-3" d="M534.58,210.36c-.05,2.1-.08,4.21-.08,6.33,0,51.05,14.03,97.95,37.48,134.92,5.2,8.19,10.87,15.9,16.94,23.06,10.67,12.55,22.61,23.41,35.56,32.22,11.76,8,24.34,14.32,37.54,18.7l5.04,6.77h29.64c2.95,.2,5.92,.3,8.9,.3,94.5,0,171.1-96.69,171.1-215.97,0-.48-.01-.95-.01-1.42-113.86-3.72-228.14-4.99-342.11-4.91Z"/><path class="cls-1" d="M831.32,216.69c0,119.28-72.72,215.97-162.44,215.97-8.03,0-15.94-.78-23.65-2.28-19.07-3.69-37.05-11.79-53.37-23.49-7.47-5.36-14.59-11.47-21.3-18.26-4.32-4.37-8.48-9.03-12.45-13.96-5.77-7.16-11.14-14.87-16.09-23.06-6.23-10.34-11.76-21.46-16.49-33.23-5.52-13.73-9.95-28.35-13.15-43.65-1.73-8.24-3.1-16.67-4.08-25.28-1.23-10.68-1.86-21.62-1.86-32.76C506.44,97.41,579.17,.72,668.88,.72c4.94,0,9.83,.29,14.66,.87,7.97,.94,15.77,2.66,23.36,5.08,5.99,1.91,11.86,4.26,17.57,7.02,6.12,2.96,12.07,6.4,17.82,10.3,1.15,.76,2.3,1.56,3.43,2.37,9.31,6.65,18.07,14.48,26.18,23.32,6.42,7.02,12.43,14.68,17.99,22.91,9.98,14.81,18.44,31.46,25.05,49.51,10.5,28.57,16.38,60.66,16.38,94.59Z"/><path class="cls-5" d="M728.41,15.26l-229.91,250.74c-1.73-8.24-3.1-16.67-4.08-25.28L710.59,4.96l17.82,10.3Z"/><path class="cls-4" d="M814.94,122.1l-244.38,266.53c-4.32-4.37-8.48-9.03-12.45-13.96-5.77-7.16-11.14-14.87-16.09-23.06-6.23-10.34-11.76-21.46-16.49-33.23L771.9,49.68c6.42,7.02,12.43,14.68,17.99,22.91,9.98,14.81,18.44,31.46,25.05,49.51Z"/><ellipse class="cls-3" cx="667.05" cy="214.26" rx="133.98" ry="178.12"/><path class="cls-1" d="M800.99,214.26c0,94.18-54.25,170.53-121.17,170.53-10.74,0-21.14-1.96-31.06-5.66-5.38-2-10.62-4.51-15.69-7.5-11.93-7.02-22.89-16.65-32.52-28.38-5.62-6.86-10.79-14.43-15.43-22.6-1.88-3.31-3.68-6.72-5.38-10.23-3.05-6.26-5.8-12.82-8.24-19.64-5.46-15.27-9.33-31.84-11.32-49.3-1.01-8.86-1.54-17.96-1.54-27.22,0-.28,0-.56,.01-.84h0c.29-86.95,46.82-158.5,106.75-168.49,4.73-.79,9.54-1.2,14.42-1.2,3.64,0,7.25,.23,10.81,.68,6.45,.8,12.74,2.31,18.86,4.49h.01c1.02,.35,2.03,.73,3.04,1.13,5.45,2.15,10.75,4.82,15.87,7.97,11.75,7.25,22.53,17.05,31.98,28.89,3.74,4.69,7.27,9.69,10.57,14.99,15.09,24.23,25.39,54.53,28.79,87.96,.82,7.97,1.24,16.13,1.24,24.42Z"/><path class="cls-5" d="M728.41,58l-168.23,183.48c-1.01-8.86-1.54-17.96-1.54-27.22,0-.28,0-.56,.01-.84h0S709.49,48.9,709.49,48.9h.01c1.02,.35,2.03,.73,3.04,1.13,5.45,2.15,10.75,4.82,15.87,7.97Z"/><path class="cls-5" d="M799.75,189.84l-166.68,181.79c-11.93-7.02-22.89-16.65-32.52-28.38-5.62-6.86-10.79-14.43-15.43-22.6-1.88-3.31-3.68-6.72-5.38-10.23l191.22-208.54c15.09,24.23,25.39,54.53,28.79,87.96Z"/></g></g></svg>