<?xml version="1.0" encoding="UTF-8"?><svg id="Layer_2" xmlns="http://www.w3.org/2000/svg" viewBox="0 0 942.75 432.27"><defs><style>.cls-1{fill:#ffdc44;}.cls-2{fill:#fa921d;}.cls-3{fill:#fcb439;}.cls-4{opacity:.64;}.cls-4,.cls-5{fill:#fff;}.cls-5{opacity:.35;}</style></defs><g id="Layer_1-2"><g><path class="cls-1" d="M431.94,216.13c0,119.28-96.69,215.97-215.97,215.97-10.68,0-21.19-.78-31.45-2.28-25.35-3.69-49.26-11.79-70.95-23.49-16.34-8.81-31.41-19.67-44.88-32.22-7.66-7.16-14.81-14.87-21.38-23.06C17.71,314.08,0,267.18,0,216.13,0,96.85,96.69,.16,215.97,.16c6.57,0,13.07,.29,19.49,.87,10.59,.94,20.96,2.66,31.05,5.08,18.21,4.36,35.53,11.03,51.62,19.69,22.18,11.93,42.04,27.63,58.72,46.23,34.26,38.23,55.09,88.73,55.09,144.1Z"/><path class="cls-5" d="M266.51,6.11L68.69,374.11c-7.66-7.16-14.81-14.87-21.38-23.06L235.46,1.03c10.59,.94,20.96,2.66,31.05,5.08Z"/><path class="cls-5" d="M376.85,72.03L184.52,429.82c-25.35-3.69-49.26-11.79-70.95-23.49L318.13,25.8c22.18,11.93,42.04,27.63,58.72,46.23Z"/><circle class="cls-3" cx="213.54" cy="213.7" r="178.12"/><path class="cls-1" d="M384.07,213.7c0,94.18-76.35,170.53-170.53,170.53-15.11,0-29.75-1.96-43.7-5.66-25.43-6.72-48.54-19.17-67.85-35.88-7.91-6.85-15.19-14.42-21.72-22.6-7.38-9.23-13.82-19.23-19.17-29.87-11.57-23.01-18.09-49.01-18.09-76.52,0-87.32,65.63-159.31,150.25-169.33,6.65-.79,13.42-1.2,20.28-1.2,5.13,0,10.21,.23,15.22,.68,10.58,.93,20.9,2.84,30.83,5.62,25.32,7.08,48.26,19.86,67.34,36.86,35.06,31.24,57.13,76.72,57.13,127.37Z"/><path class="cls-5" d="M228.76,43.85L80.27,320.09c-7.38-9.23-13.82-19.23-19.17-29.87L193.26,44.37c6.65-.79,13.42-1.2,20.28-1.2,5.13,0,10.21,.23,15.22,.68Z"/><path class="cls-5" d="M326.94,86.33L169.84,378.57c-25.43-6.72-48.54-19.17-67.85-35.88L259.6,49.47c25.32,7.08,48.26,19.86,67.34,36.86Z"/></g><g><path class="cls-3" d="M852.58,25.97c-12.75-8.66-26.47-15.33-40.9-19.69-7.99-2.42-16.21-4.14-24.6-5.08-7.65-2.82-68.7,.24-68.7,.24l1.2,9.08c-29.13,11.73-54.87,33.04-74.9,60.99,83.94-.62,167.77-2.22,251.8-2.9-12.66-17.04-27.48-31.49-43.91-42.65Z"/><path class="cls-2" d="M899.1,72.2c-.86-1.21-1.73-2.4-2.61-3.58-84.03,.68-167.86,2.27-251.8,2.9-26.39,36.84-42.85,85.24-44.07,138.45,113.97-.08,228.25,1.19,342.11,4.91-.28-54.81-16.72-104.77-43.63-142.68Z"/><path class="cls-3" d="M600.63,209.97c-.05,2.1-.08,4.21-.08,6.33,0,51.05,14.03,97.95,37.48,134.92,5.2,8.19,10.87,15.9,16.94,23.06,10.67,12.55,22.61,23.41,35.56,32.22,11.76,8,24.34,14.32,37.54,18.7l5.04,6.77h29.64c2.95,.2,5.92,.3,8.9,.3,94.5,0,171.1-96.69,171.1-215.97,0-.48-.01-.95-.01-1.42-113.86-3.72-228.14-4.99-342.11-4.91Z"/><path class="cls-1" d="M897.37,216.3c0,119.28-72.72,215.97-162.44,215.97-8.03,0-15.94-.78-23.65-2.28-19.07-3.69-37.05-11.79-53.37-23.49-7.47-5.36-14.59-11.47-21.3-18.26-4.32-4.37-8.48-9.03-12.45-13.96-5.77-7.16-11.14-14.87-16.09-23.06-6.23-10.34-11.76-21.46-16.49-33.23-5.52-13.73-9.95-28.35-13.15-43.65-1.73-8.24-3.1-16.67-4.08-25.28-1.23-10.68-1.86-21.62-1.86-32.76C572.49,97.02,645.22,.33,734.93,.33c4.94,0,9.83,.29,14.66,.87,7.97,.94,15.77,2.66,23.36,5.08,5.99,1.91,11.86,4.26,17.57,7.02,6.12,2.96,12.07,6.4,17.82,10.3,1.15,.76,2.3,1.56,3.43,2.37,9.31,6.65,18.07,14.48,26.18,23.32,6.42,7.02,12.43,14.68,17.99,22.91,9.98,14.81,18.44,31.46,25.05,49.51,10.5,28.57,16.38,60.66,16.38,94.59Z"/><path class="cls-5" d="M794.46,14.87l-229.91,250.74c-1.73-8.24-3.1-16.67-4.08-25.28L776.64,4.57l17.82,10.3Z"/><path class="cls-4" d="M880.99,121.71l-244.38,266.53c-4.32-4.37-8.48-9.03-12.45-13.96-5.77-7.16-11.14-14.87-16.09-23.06-6.23-10.34-11.76-21.46-16.49-33.23L837.95,49.29c6.42,7.02,12.43,14.68,17.99,22.91,9.98,14.81,18.44,31.46,25.05,49.51Z"/><ellipse class="cls-3" cx="733.1" cy="213.87" rx="133.98" ry="178.12"/><path class="cls-1" d="M867.04,213.87c0,94.18-54.25,170.53-121.17,170.53-10.74,0-21.14-1.96-31.06-5.66-5.38-2-10.62-4.51-15.69-7.5-11.93-7.02-22.89-16.65-32.52-28.38-5.62-6.86-10.79-14.43-15.43-22.6-1.88-3.31-3.68-6.72-5.38-10.23-3.05-6.26-5.8-12.82-8.24-19.64-5.46-15.27-9.33-31.84-11.32-49.3-1.01-8.86-1.54-17.96-1.54-27.22,0-.28,0-.56,.01-.84h0c.29-86.95,46.82-158.5,106.75-168.49,4.73-.79,9.54-1.2,14.42-1.2,3.64,0,7.25,.23,10.81,.68,6.45,.8,12.74,2.31,18.86,4.49h.01c1.02,.35,2.03,.73,3.04,1.13,5.45,2.15,10.75,4.82,15.87,7.97,11.75,7.25,22.53,17.05,31.98,28.89,3.74,4.69,7.27,9.69,10.57,14.99,15.09,24.23,25.39,54.53,28.79,87.96,.82,7.97,1.24,16.13,1.24,24.42Z"/><path class="cls-5" d="M794.46,57.61l-168.23,183.48c-1.01-8.86-1.54-17.96-1.54-27.22,0-.28,0-.56,.01-.84h0S775.54,48.51,775.54,48.51h.01c1.02,.35,2.03,.73,3.04,1.13,5.45,2.15,10.75,4.82,15.87,7.97Z"/><path class="cls-5" d="M865.8,189.45l-166.68,181.79c-11.93-7.02-22.89-16.65-32.52-28.38-5.62-6.86-10.79-14.43-15.43-22.6-1.88-3.31-3.68-6.72-5.38-10.23l191.22-208.54c15.09,24.23,25.39,54.53,28.79,87.96Z"/></g></g></svg>